<svg version="1.1" id="Layer_1" xmlns="http://www.w3.org/2000/svg" xmlns:xlink="http://www.w3.org/1999/xlink" x="0px" y="0px" viewBox="0 0 213.5 108" style="enable-background:new 0 0 213.5 108;" xml:space="preserve">
<style type="text/css">
	.st0{fill:#00A4E4;}
</style>
<path class="st0" d="M51.6,40.4l9,20.6H42.2L51.6,40.4z M50,23.7L21.8,84.3h9.9l6.8-14.7h26l6.4,14.7h10L53.5,23.7H50z M99.4,80.7
	v-57h-9.2v60.6h9.2V80.7z M147.4,61.4h15.1c-0.4,4.3-2.4,7.9-6,11c-3.6,3-7.6,4.5-12.1,4.5c-5.3,0-10.2-2-14.7-6.1
	c-4.8-4.4-7.3-9.9-7.3-16.7c0-6.5,2.2-12,6.5-16.3c4.3-4.4,9.7-6.6,16.1-6.6c7.1,0,13.2,3.3,18.2,9.9l6.5-6.2
	c-3.8-4.3-7.7-7.5-11.6-9.4c-4.1-1.9-8.5-2.9-13.3-2.9c-8.8,0-16.3,3.1-22.5,9.2c-6.2,6.1-9.2,13.6-9.2,22.4c0,8.6,3,16,9.1,22.1
	c6,6.1,13.3,9.2,21.8,9.2c8.7,0,15.8-3.2,21.5-9.5c2.5-2.8,4.3-5.9,5.3-9.1c1.1-3.5,1.6-7.5,1.6-12.1v-2h-25.1V61.4z M8.3,8.3h183.1
	v91.3H8.3V8.3z M0,108h199.7V0H0V108z M209.2,99.4c2.3,0,4.2,1.8,4.2,4.2c0,2.4-1.9,4.3-4.2,4.3c-2.3,0-4.3-1.8-4.3-4.3
	C205,101.2,206.9,99.4,209.2,99.4 M209.2,107.2c2,0,3.5-1.6,3.5-3.6c0-2-1.5-3.6-3.5-3.6c-2,0-3.5,1.6-3.5,3.6
	C205.7,105.7,207.2,107.2,209.2,107.2 M207.6,101.2h1.9c1.2,0,1.7,0.5,1.7,1.4c0,0.9-0.6,1.3-1.3,1.3l1.4,2.2h-0.8l-1.4-2.1h-0.8
	v2.1h-0.8V101.2z M208.3,103.3h0.8c0.7,0,1.3,0,1.3-0.8c0-0.7-0.6-0.8-1.1-0.8h-1V103.3z"/>
</svg>
